<?xml version="1.0" encoding="utf-8"?>
<!-- Generator: Adobe Illustrator 22.1.0, SVG Export Plug-In . SVG Version: 6.00 Build 0)  -->
<svg version="1.1" id="Layer_1" xmlns="http://www.w3.org/2000/svg" xmlns:xlink="http://www.w3.org/1999/xlink" x="0px" y="0px"
	 viewBox="0 0 640 262" style="enable-background:new 0 0 640 262;" xml:space="preserve">
<style type="text/css">
	.st0{fill:#3F2F90;}
</style>
<title>logo-simpleico</title>
<desc>Created with Sketch.</desc>
<g id="Page-1">
	<g id="Desktop-HD" transform="translate(-373.000000, -381.000000)">
		<g id="logo-simpleico" transform="translate(373.000000, 381.000000)">
			<path id="Shape" class="st0" d="M99.8,212.1c-44.7,0-81.9-36.4-81.9-81.1c0-44.8,36.2-81.1,81-81.2h1V32.6h-1
				C44.8,32.6,0.7,76.7,0.7,131c0.1,54.2,44,98.2,98.2,98.4h1v-1l0,0"/>
			<path id="Shape_1_" class="st0" d="M99.8,0.9L99.8,0.9v17.3c62.9,0,114,50.6,114,112.9c-0.1,62.3-50.6,112.7-112.8,112.8h-1.2
				v17.3h1.2c71.8-0.1,130-58.3,130.1-130.1C231.1,59.2,172.2,0.8,99.8,0.9"/>
			<path id="Shape_2_" class="st0" d="M87.4,112.3c3.3-2.7,7.4-4.2,11.6-4.4h1V92.3l-1.2,0.1c-8.6,0.5-15.5,3.3-22.4,9.1
				c-5.1,4.2-8.6,9.9-10.1,16.3c-1.5,6.5,0.1,13.3,4.5,18.4c3.8,4.7,9.6,7.4,15.6,7.3c1.7,0,3.4-0.1,5.1-0.4c2.6-0.5,5.2-1.2,7.7-2
				l0.7-0.2v-16.7l-1.4,0.4c-4.2,1.4-7.6,2.4-10.3,2.4c-1.7,0.1-3.4-0.5-4.5-1.8c-1.5-1.8-1.9-4.3-1-6.5
				C83.8,116.2,85.4,114,87.4,112.3"/>
			<path id="Shape_3_" class="st0" d="M133.7,148.5c-3.9,3.3-9.7,5.1-15.8,5.1c-1.2,0-2.4-0.1-3.6-0.2l-1.2-0.2v16.5h1h2.2
				c10.6,0,19.8-3.2,27.2-9.5c5.4-4.4,9-10.6,10.3-17.4c1.2-6.7-0.6-13.6-5-18.8c-4.2-5.4-10.6-8.5-17.4-8.3c-6.1,0-12,2-17.5,3.8
				l-0.7,0.2l-0.1,17.1l1.4-0.4c1.2-0.4,2.3-0.8,3.6-1.2c4.2-1.4,8.3-2.8,11.6-2.8c2.4-0.2,4.8,0.9,6.3,2.8
				C139.3,139.1,138.3,144.6,133.7,148.5"/>
			<path id="Shape_4_" class="st0" d="M297.5,100.8c3.9,3.5,9.9,5.6,15.7,5.6c4.2,0,7.3-2,7.3-4.8c0-8.6-27.7-5.6-27.7-24
				c0-11,10.5-17.9,21.9-17.9c7.4,0,15.6,2.9,19.3,5.8l-7.2,11.2c-3.2-2.4-7-3.8-11-3.9c-4.2,0-7.7,1.7-7.7,4.6
				c0,7.4,27.7,4.5,27.7,24.3c0,11-10.8,17.7-22.8,17.7c-8.3-0.1-16.3-2.8-23-7.7L297.5,100.8z"/>
			<path id="Shape_5_" class="st0" d="M377.9,118.8V61.5h14.7v4.6c4.2-3.8,9.8-5.9,15.5-5.8c7.5,0,14.6,3.3,19.3,9
				c5.3-5.6,12.6-8.9,20.3-9c7.7-0.1,15.1,3.3,20.1,9.3c3.7,4.5,5.9,10.4,5.9,18.9v30.3h-15.4V87.9c0-5.2-1.1-7.8-2.8-9.8
				c-2.3-2.4-5.4-3.7-8.7-3.6c-6.6,0-11.8,4.6-13.8,7.6c0.3,2.1,0.4,4.3,0.4,6.4v30.3H418V87.9c0-5.2-1-7.8-2.8-9.8
				c-2.2-2.4-5.3-3.7-8.6-3.6c-6.6,0-11.3,4.4-13.5,7.1v37.2L377.9,118.8z"/>
			<path id="Shape_6_" class="st0" d="M486.6,61h14.7v4.6c4.8-3.8,10.7-5.8,16.8-5.8c15.6,0,28.1,13,28.1,29.9
				c0.1,7.3-2.5,14.5-7.2,20.1c-5.5,6.2-13.4,9.7-21.7,9.7c-5.6,0.1-11-1.7-15.4-5.2v32.3h-15.4V61z M501.9,98.2
				c3.2,4.5,8.3,7.1,13.8,7.1c8.7,0,15.1-6.6,15.1-15.6c0-8.3-5.8-15.7-14.7-15.7c-5.6,0-10.9,2.6-14.2,7.1V98.2z"/>
			<rect id="Rectangle-path" x="557.1" y="33.5" class="st0" width="15.4" height="83.9"/>
			<path id="Shape_7_" class="st0" d="M638,109.9c-5.6,6.6-14.6,10.3-23.5,10.3c-17.1,0-30.1-11.8-30.1-29.8
				c0-16,10.9-29.9,27.9-29.9c15.9,0,27.1,13.3,27.1,29.3c0,1.5-0.1,2.9-0.3,4.4h-39.8c0.8,8,7.3,13.6,15.5,13.6
				c6.5,0,11.7-3.7,14.4-6.6L638,109.9z M623.6,83c-0.8-5.7-5.6-10-11.4-10c-6.4,0-11.5,4.8-12.2,10H623.6z"/>
			<path id="Shape_8_" class="st0" d="M354.8,39.3c4.3,0.1,7.7,3.8,7.6,8.1c-0.1,4.3-3.7,7.8-8,7.7c-4.3-0.1-7.8-3.6-7.7-8
				C346.8,42.7,350.4,39.2,354.8,39.3"/>
			<rect id="Rectangle-path_1_" x="347.1" y="61.7" class="st0" width="15.4" height="57.3"/>
			<path id="Shape_9_" class="st0" d="M303.1,128.9c4.3,0.1,7.7,3.8,7.6,8.1s-3.7,7.8-8,7.7c-4.3-0.1-7.8-3.6-7.7-8
				c0-2.1,0.9-4.1,2.4-5.6C298.9,129.6,301,128.9,303.1,128.9"/>
			<rect id="Rectangle-path_2_" x="295.3" y="151.4" class="st0" width="15.5" height="57.3"/>
			<path id="Shape_10_" class="st0" d="M393.1,197c-6.6,9-15.1,12.9-25.9,12.9c-17.7,0-30.7-13.2-30.7-29.8s13.4-29.9,30.8-29.9
				c9.4-0.1,18.2,4.1,24.1,11.4l-10.9,9.6c-3.1-4.3-8-6.8-13.2-6.8c-4.2,0-8.1,1.6-11.1,4.6c-2.9,3-4.5,7-4.4,11.1
				c0,9,6.6,15.6,15.8,15.6c5.6-0.1,10.7-2.9,13.8-7.6L393.1,197z"/>
			<path id="Shape_11_" class="st0" d="M442.9,150.2c17.4,0,30.5,13.3,30.5,29.9s-13.2,29.8-30.5,29.8s-30.5-13.2-30.5-29.8
				S425.5,150.2,442.9,150.2 M442.9,195.7c9,0,15.1-7,15.1-15.6s-6.2-15.7-15.1-15.7s-15.1,7.1-15.1,15.7
				C427.7,188.7,433.9,195.7,442.9,195.7"/>
		</g>
	</g>
</g>
</svg>
