<svg xmlns="http://www.w3.org/2000/svg" viewBox="0 0 503 250"><defs><style>.cls-1{fill:#fff;}</style></defs><title>logo-superander-fibonacci</title><g id="Layer_5" data-name="Layer 5"><g id="logo-superander-fibonacci"><path id="Shape" class="cls-1" d="M170.31,161c0,3.1,2.37,4.8,5.3,3.79L496.34,66.59a8.39,8.39,0,0,0,5.3-7.43V11.55c0-3.1-2.37-4.77-5.29-3.75L175.6,108.58a8.47,8.47,0,0,0-5.29,7.46Z"/><path id="Shape-2" data-name="Shape" class="cls-1" d="M378.32,199.15a6.63,6.63,0,0,0,5.48-6.4v-66c0-3.1-2.34-4.79-5.24-3.79L3.46,241.32c-2.89,1-2.79,1.45.24,1Z"/><path id="Triangle" class="cls-1" d="M451.58,197.62c1.57,2.61,4.1,2.61,5.67,0l42-69.95c1.57-2.61.37-4.72-2.66-4.72H412.26c-3,0-4.23,2.11-2.66,4.72Z"/></g></g></svg>